<?xml version="1.0" standalone="no"?>
<!DOCTYPE svg PUBLIC "-//W3C//DTD SVG 20010904//EN"
 "http://www.w3.org/TR/2001/REC-SVG-20010904/DTD/svg10.dtd">
<svg version="1.0" xmlns="http://www.w3.org/2000/svg"
 width="701.000000pt" height="701.000000pt" viewBox="0 0 701.000000 701.000000"
 preserveAspectRatio="xMidYMid meet">
<metadata>
Created by potrace 1.14, written by Peter Selinger 2001-2017
</metadata>
<g transform="translate(0.000000,701.000000) scale(0.100000,-0.100000)"
fill="#000000" stroke="none">
<path d="M330 6998 c-19 -5 -43 -10 -52 -11 -9 -1 -15 -4 -12 -6 3 -3 -13 -14
-34 -26 -56 -29 -97 -66 -130 -119 -16 -25 -31 -44 -33 -41 -3 2 -5 -4 -6 -13
-1 -9 -9 -42 -17 -72 -14 -49 -16 -370 -16 -3200 0 -3474 -5 -3206 63 -3313
19 -29 48 -64 65 -79 17 -14 28 -29 24 -33 -4 -5 -2 -5 5 -1 6 3 14 2 18 -4 9
-14 85 -48 136 -59 63 -15 6329 -15 6384 0 108 28 202 100 257 197 l27 47 1
3243 c0 2984 -1 3246 -16 3275 -31 59 -98 139 -128 150 -9 4 -15 11 -12 15 3
5 -1 9 -8 9 -8 0 -36 11 -62 24 l-49 24 -3185 1 c-2035 1 -3198 -2 -3220 -8z"/>
</g>
</svg>
