<svg width="159" height="164" viewBox="0 0 159 164" fill="none" xmlns="http://www.w3.org/2000/svg">
<rect x="2.22656" y="113.503" width="154.33" height="48.6125" stroke="black" stroke-width="3"/>
<path d="M28.7157 147.045C26.8561 147.045 25.2469 146.64 23.888 145.829C22.5292 144.995 21.4921 143.862 20.7769 142.432C20.0617 141.001 19.7041 139.392 19.7041 137.604C19.7041 135.745 20.0855 134.088 20.8484 132.634C21.6352 131.179 22.7318 130.047 24.1384 129.237C25.5449 128.426 27.1661 128.021 29.0018 128.021C30.5752 128.021 31.9699 128.307 33.1857 128.879C34.4254 129.451 35.4148 130.274 36.1538 131.346C36.9167 132.395 37.3458 133.623 37.4412 135.03H31.648C31.5288 134.505 31.2308 134.076 30.754 133.742C30.2772 133.385 29.6693 133.206 28.9302 133.206C28.2389 133.206 27.6429 133.385 27.1422 133.742C26.6416 134.076 26.2601 134.577 25.9979 135.244C25.7357 135.888 25.6045 136.663 25.6045 137.569C25.6045 138.474 25.7357 139.249 25.9979 139.893C26.284 140.537 26.6654 141.025 27.1422 141.359C27.6429 141.693 28.2389 141.86 28.9302 141.86C29.4309 141.86 29.8719 141.776 30.2534 141.609C30.6586 141.419 30.9805 141.156 31.2189 140.823C31.4811 140.489 31.648 140.107 31.7195 139.678H37.5127C37.3696 140.966 36.9286 142.182 36.1896 143.326C35.4505 144.446 34.4373 145.352 33.1499 146.044C31.8864 146.711 30.4083 147.045 28.7157 147.045Z" fill="black"/>
<path d="M37.045 131.096V128.593H42.0514V133.242H41.9084C41.9084 132.24 42.0753 131.394 42.409 130.703C42.7666 130.011 43.2792 129.487 43.9467 129.129C44.6143 128.772 45.4129 128.593 46.3427 128.593H49.418V133.599H45.6275C44.9838 133.599 44.4474 133.695 44.0182 133.885C43.5891 134.076 43.2673 134.374 43.0527 134.779C42.862 135.185 42.7666 135.697 42.7666 136.317V146.473H37.045V131.096Z" fill="black"/>
<path d="M57.5278 147.045C55.6682 147.045 54.0114 146.651 52.5571 145.865C51.1267 145.078 50.0062 143.969 49.1957 142.539C48.3851 141.085 47.9798 139.416 47.9798 137.533C47.9798 135.649 48.3851 133.993 49.1957 132.562C50.0062 131.108 51.1267 129.987 52.5571 129.201C54.0114 128.414 55.6682 128.021 57.5278 128.021C59.3873 128.021 61.0323 128.414 62.4627 129.201C63.9169 129.987 65.0493 131.108 65.8599 132.562C66.6705 133.993 67.0757 135.649 67.0757 137.533C67.0757 139.416 66.6705 141.085 65.8599 142.539C65.0493 143.969 63.9169 145.078 62.4627 145.865C61.0323 146.651 59.3873 147.045 57.5278 147.045ZM57.5278 141.86C58.243 141.86 58.8747 141.681 59.4231 141.323C59.9714 140.966 60.4005 140.465 60.7104 139.821C61.0204 139.154 61.1753 138.391 61.1753 137.533C61.1753 136.675 61.0204 135.924 60.7104 135.28C60.4005 134.612 59.9714 134.1 59.4231 133.742C58.8747 133.385 58.243 133.206 57.5278 133.206C56.8126 133.206 56.1808 133.385 55.6325 133.742C55.0842 134.1 54.655 134.612 54.3451 135.28C54.0352 135.924 53.8802 136.675 53.8802 137.533C53.8802 138.391 54.0352 139.154 54.3451 139.821C54.655 140.465 55.0842 140.966 55.6325 141.323C56.1808 141.681 56.8126 141.86 57.5278 141.86Z" fill="black"/>
<path d="M64.6684 128.593H70.6046L73.7157 142.217H72.7144L75.8613 128.593H82.4412L85.5881 142.217H84.5868L87.6979 128.593H93.6341L88.5919 146.473H81.7975L78.6148 132.777H79.6876L76.505 146.473H69.7106L64.6684 128.593Z" fill="black"/>
<path d="M99.7162 146.473C98.5718 146.473 97.6421 146.306 96.9269 145.972C96.2117 145.638 95.6753 145.114 95.3176 144.399C94.96 143.683 94.7812 142.73 94.7812 141.538V123.479H100.503V140.072C100.503 140.548 100.61 140.906 100.825 141.144C101.039 141.359 101.397 141.466 101.898 141.466H105.724V146.473H99.7162ZM90.4185 128.593H105.724V133.599H90.4185V128.593Z" fill="black"/>
<path d="M113.527 147.045C111.691 147.045 110.082 146.651 108.699 145.865C107.316 145.054 106.243 143.922 105.481 142.468C104.741 141.013 104.372 139.333 104.372 137.425C104.372 135.542 104.741 133.897 105.481 132.491C106.243 131.06 107.304 129.964 108.663 129.201C110.046 128.414 111.619 128.021 113.384 128.021C116.173 128.021 118.366 128.867 119.963 130.56C121.561 132.228 122.359 134.517 122.359 137.425C122.359 137.783 122.347 138.153 122.324 138.534C122.324 138.892 122.3 139.249 122.252 139.607H106.947V135.316H116.602C116.602 134.457 116.328 133.778 115.779 133.277C115.231 132.777 114.433 132.526 113.384 132.526C112.644 132.526 112.013 132.658 111.488 132.92C110.988 133.158 110.606 133.516 110.344 133.993C110.082 134.469 109.951 135.03 109.951 135.673V138.927C109.951 139.666 110.082 140.298 110.344 140.823C110.63 141.323 111.035 141.705 111.56 141.967C112.108 142.205 112.776 142.325 113.562 142.325C114.23 142.325 114.79 142.205 115.243 141.967C115.696 141.729 116.006 141.431 116.173 141.073H122.073C121.716 142.289 121.167 143.35 120.428 144.256C119.689 145.138 118.736 145.829 117.567 146.33C116.423 146.806 115.076 147.045 113.527 147.045Z" fill="black"/>
<path d="M130.49 147.045C128.63 147.045 127.021 146.64 125.662 145.829C124.303 144.995 123.266 143.862 122.551 142.432C121.836 141.001 121.478 139.392 121.478 137.604C121.478 135.745 121.86 134.088 122.623 132.634C123.409 131.179 124.506 130.047 125.912 129.237C127.319 128.426 128.94 128.021 130.776 128.021C132.349 128.021 133.744 128.307 134.96 128.879C136.199 129.451 137.189 130.274 137.928 131.346C138.691 132.395 139.12 133.623 139.215 135.03H133.422C133.303 134.505 133.005 134.076 132.528 133.742C132.051 133.385 131.443 133.206 130.704 133.206C130.013 133.206 129.417 133.385 128.916 133.742C128.416 134.076 128.034 134.577 127.772 135.244C127.51 135.888 127.379 136.663 127.379 137.569C127.379 138.474 127.51 139.249 127.772 139.893C128.058 140.537 128.44 141.025 128.916 141.359C129.417 141.693 130.013 141.86 130.704 141.86C131.205 141.86 131.646 141.776 132.027 141.609C132.433 141.419 132.755 141.156 132.993 140.823C133.255 140.489 133.422 140.107 133.494 139.678H139.287C139.144 140.966 138.703 142.182 137.964 143.326C137.225 144.446 136.211 145.352 134.924 146.044C133.66 146.711 132.182 147.045 130.49 147.045Z" fill="black"/>
<path fill-rule="evenodd" clip-rule="evenodd" d="M157.066 113.202H1.92485V162.418H157.066V113.202ZM0.726562 112.004V163.616H158.264V112.004H0.726562Z" fill="black"/>
<path d="M0.726562 0.705322H158.264V112.003H0.726562V0.705322Z" fill="black"/>
<path d="M76.9368 58.0248L108.688 54.54L105.977 63.9619L76.9368 58.0248Z" fill="black"/>
<path fill-rule="evenodd" clip-rule="evenodd" d="M70.0729 75.1811C77.9138 75.1811 84.3067 68.9986 84.6168 61.2554L105.227 55.7654C105.449 57.3671 105.564 59.0031 105.564 60.6659C105.564 80.2126 89.6742 96.0583 70.0729 96.0583C50.4715 96.0583 34.5815 80.2126 34.5815 60.6659C34.5815 41.1192 50.4715 25.2734 70.0729 25.2734C71.938 25.2734 73.7695 25.4169 75.5569 25.6934L65.5011 46.8811C59.7018 48.7927 55.5171 54.242 55.5171 60.6659C55.5171 68.6824 62.0339 75.1811 70.0729 75.1811Z" fill="#F3FFFF"/>
<path d="M74.5217 47.0229L77.7396 26.4597L125.732 28.9313L144.318 33.335L74.5217 47.0229Z" fill="#F3FFFF"/>
<path d="M99.1196 45.0459L82.8259 53.9434H129.291L99.1196 45.0459Z" fill="#F3FFFF"/>
</svg>
