<svg width="176" height="176" viewBox="0 0 176 176" fill="none" xmlns="http://www.w3.org/2000/svg">
<path d="M55.7547 107.965V111.694C55.7547 114.222 55.2863 115.978 54.3493 116.964C53.4264 117.937 51.8672 118.423 49.6718 118.423C47.4764 118.423 45.8892 117.95 44.9103 117.006C43.9315 116.048 43.4421 114.52 43.4421 112.423V108.299C43.4421 106.23 43.3302 104.82 43.1064 104.07V103.612H46.7142V104.07C46.5185 105.32 46.4206 106.938 46.4206 108.924V111.486C46.4206 112.889 46.5045 113.888 46.6723 114.486C46.8541 115.083 47.0708 115.513 47.3225 115.777C47.8959 116.402 48.7698 116.714 49.9445 116.714C51.1331 116.714 52.0141 116.534 52.5874 116.173C52.951 115.631 53.1817 114.888 53.2796 113.944C53.3775 113 53.4264 111.403 53.4264 109.153C53.4264 106.889 53.3146 105.195 53.0908 104.07V103.612H56.0903V104.049C55.9924 104.369 55.9085 104.98 55.8386 105.882C55.7827 106.771 55.7547 107.466 55.7547 107.965Z" fill="white"/>
<path d="M79.4937 50.0251C80.025 46.8727 80.2907 43.2064 80.2907 39.0264C80.2907 37.9154 80.2628 37.0197 80.2068 36.3392V35.8809L83.6678 35.6101C83.8076 36.2767 84.1013 37.3113 84.5488 38.7139C85.0102 40.1165 86.1079 43.0259 87.8419 47.4421C88.9886 44.2896 89.8626 41.7344 90.4639 39.7763C91.0652 37.8182 91.4218 36.5336 91.5336 35.9226L95.1204 35.5476V36.0059C95.1065 36.2975 95.0995 36.8877 95.0995 37.7765C95.0995 38.6514 95.1764 40.2623 95.3302 42.6093C95.498 44.9423 95.7707 47.4143 96.1483 50.0251V50.4834H92.6873V50.0251C92.7292 49.2057 92.7502 48.2822 92.7502 47.2546C92.7502 44.6715 92.6244 42.2413 92.3726 39.9638C90.6527 44.741 89.471 48.2336 88.8278 50.4417L86.2897 50.6917C86.2897 50.039 85.0382 46.4283 82.5351 39.8596C82.3813 42.3038 82.3044 44.3383 82.3044 45.9631C82.3044 47.574 82.3254 48.928 82.3673 50.0251V50.4834H79.4937V50.0251Z" fill="white"/>
<path d="M129.267 105.32C128.694 105.32 128.247 105.334 127.925 105.362C127.897 106.001 127.883 107.563 127.883 110.049L133.274 109.945L132.54 111.673H132.141C131.61 111.562 130.826 111.507 129.792 111.507C128.771 111.507 128.135 111.521 127.883 111.548V112.653C127.883 114.986 127.904 116.381 127.946 116.84C128.267 116.867 128.799 116.881 129.54 116.881C130.295 116.881 131.197 116.819 132.246 116.694C133.295 116.569 134.064 116.409 134.553 116.215H134.952L134.553 118.423H124.506V117.964C124.744 116.965 124.862 115.569 124.862 113.777V108.507C124.862 106.702 124.744 105.299 124.506 104.299V103.841L134.259 103.779L133.63 105.612H133.232C132.546 105.417 131.225 105.32 129.267 105.32Z" fill="white"/>
<circle cx="88.0749" cy="87.0412" r="22.5593" stroke="white" stroke-width="3"/>
<rect x="79.4937" y="86.9033" width="13.2946" height="2.34205" rx="1.17103" fill="white"/>
<rect x="93.4382" y="86.9033" width="2.27318" height="2.34205" rx="1.13659" fill="white"/>
<rect x="76.5015" y="98.2866" width="20.4241" height="2.34205" rx="1.17103" transform="rotate(-90 76.5015 98.2866)" fill="white"/>
<rect x="96.3616" y="98.2866" width="20.4241" height="2.34205" rx="1.17103" transform="rotate(-90 96.3616 98.2866)" fill="white"/>
<circle cx="88.0746" cy="88.0746" r="68.5746" stroke="white" stroke-width="3"/>
</svg>
