<svg width="176" height="175" viewBox="0 0 176 175" fill="none" xmlns="http://www.w3.org/2000/svg">
<g clip-path="url(#clip0_491_1315)">
<path d="M57.2237 106.425V110.154C57.2237 112.682 56.7552 114.438 55.8183 115.424C54.8954 116.396 53.3362 116.882 51.1408 116.882C48.9453 116.882 47.3582 116.41 46.3793 115.466C45.4005 114.508 44.911 112.98 44.911 110.883V106.759C44.911 104.689 44.7992 103.28 44.5754 102.53V102.072H48.1832V102.53C47.9875 103.78 47.8896 105.398 47.8896 107.384V109.946C47.8896 111.348 47.9735 112.348 48.1413 112.945C48.3231 113.543 48.5398 113.973 48.7915 114.237C49.3649 114.862 50.2388 115.174 51.4135 115.174C52.6021 115.174 53.4831 114.994 54.0564 114.633C54.42 114.091 54.6507 113.348 54.7486 112.404C54.8465 111.459 54.8954 109.862 54.8954 107.613C54.8954 105.349 54.7835 103.655 54.5598 102.53V102.072H57.5593V102.509C57.4614 102.829 57.3775 103.44 57.3076 104.342C57.2517 105.231 57.2237 105.925 57.2237 106.425Z" fill="white"/>
<path d="M80.9624 48.4848C81.4938 45.3324 81.7595 41.6662 81.7595 37.4861C81.7595 36.3751 81.7315 35.4794 81.6756 34.7989V34.3406L85.1365 34.0698C85.2764 34.7364 85.57 35.771 86.0175 37.1736C86.479 38.5762 87.5767 41.4856 89.3107 45.9018C90.4573 42.7494 91.3313 40.1941 91.9326 38.236C92.5339 36.2779 92.8905 34.9933 93.0024 34.3823L96.5892 34.0073V34.4656C96.5752 34.7572 96.5682 35.3474 96.5682 36.2362C96.5682 37.1111 96.6451 38.7221 96.799 41.069C96.9668 43.4021 97.2394 45.874 97.617 48.4848V48.9431H94.156V48.4848C94.198 47.6655 94.219 46.742 94.219 45.7143C94.219 43.1313 94.0931 40.701 93.8414 38.4235C92.1214 43.2007 90.9398 46.6933 90.2965 48.9014L87.7585 49.1514C87.7585 48.4987 86.5069 44.888 84.0039 38.3193C83.85 40.7635 83.7731 42.798 83.7731 44.4228C83.7731 46.0337 83.7941 47.3877 83.8361 48.4848V48.9431H80.9624V48.4848Z" fill="white"/>
<path d="M130.736 103.78C130.163 103.78 129.715 103.794 129.394 103.821C129.366 104.46 129.352 106.023 129.352 108.508L134.742 108.404L134.008 110.133H133.61C133.078 110.022 132.295 109.967 131.26 109.967C130.24 109.967 129.603 109.98 129.352 110.008V111.112C129.352 113.445 129.373 114.841 129.415 115.299C129.736 115.327 130.268 115.341 131.009 115.341C131.764 115.341 132.666 115.278 133.715 115.153C134.763 115.028 135.532 114.869 136.022 114.674H136.42L136.022 116.882H125.975V116.424C126.212 115.424 126.331 114.029 126.331 112.237V106.967C126.331 105.162 126.212 103.759 125.975 102.759V102.301L135.728 102.238L135.099 104.071H134.7C134.015 103.877 132.694 103.78 130.736 103.78Z" fill="white"/>
<circle cx="89.5434" cy="85.5009" r="22.5593" stroke="white" stroke-width="3"/>
<rect x="80.9624" y="85.3633" width="13.2946" height="2.34205" rx="1.17103" fill="white"/>
<rect x="94.907" y="85.3633" width="2.27318" height="2.34205" rx="1.13659" fill="white"/>
<rect x="77.9702" y="96.7463" width="20.4241" height="2.34205" rx="1.17103" transform="rotate(-90 77.9702 96.7463)" fill="white"/>
<rect x="97.8303" y="96.7463" width="20.4241" height="2.34205" rx="1.17103" transform="rotate(-90 97.8303 96.7463)" fill="white"/>
<circle cx="89.5433" cy="86.5343" r="68.5746" stroke="white" stroke-width="3"/>
</g>
<defs>
<clipPath id="clip0_491_1315">
<rect x="0.774414" width="175" height="175" rx="8" fill="white"/>
</clipPath>
</defs>
</svg>
