<svg width="175" height="175" viewBox="0 0 175 175" fill="none" xmlns="http://www.w3.org/2000/svg">
<path d="M55.755 106.966V110.694C55.755 113.222 55.2865 114.979 54.3496 115.965C53.4267 116.937 51.8675 117.423 49.672 117.423C47.4766 117.423 45.8894 116.951 44.9106 116.006C43.9317 115.048 43.4423 113.52 43.4423 111.423V107.299C43.4423 105.23 43.3304 103.82 43.1067 103.07V102.612H46.7145V103.07C46.5187 104.32 46.4208 105.938 46.4208 107.924V110.486C46.4208 111.889 46.5047 112.889 46.6725 113.486C46.8543 114.083 47.0711 114.513 47.3228 114.777C47.8961 115.402 48.7701 115.715 49.9447 115.715C51.1333 115.715 52.0143 115.534 52.5876 115.173C52.9512 114.631 53.182 113.888 53.2798 112.944C53.3777 112 53.4267 110.403 53.4267 108.153C53.4267 105.889 53.3148 104.195 53.0911 103.07V102.612H56.0906V103.049C55.9927 103.369 55.9088 103.98 55.8389 104.883C55.7829 105.771 55.755 106.466 55.755 106.966Z" fill="white"/>
<path d="M79.4937 49.0251C80.025 45.8727 80.2907 42.2064 80.2907 38.0264C80.2907 36.9154 80.2628 36.0197 80.2068 35.3392V34.8809L83.6678 34.6101C83.8076 35.2767 84.1013 36.3113 84.5488 37.7139C85.0102 39.1165 86.1079 42.0259 87.8419 46.4421C88.9886 43.2896 89.8626 40.7344 90.4639 38.7763C91.0652 36.8182 91.4218 35.5336 91.5336 34.9226L95.1204 34.5476V35.0059C95.1065 35.2975 95.0995 35.8877 95.0995 36.7765C95.0995 37.6514 95.1764 39.2623 95.3302 41.6093C95.498 43.9423 95.7707 46.4143 96.1483 49.0251V49.4834H92.6873V49.0251C92.7292 48.2057 92.7502 47.2822 92.7502 46.2546C92.7502 43.6715 92.6244 41.2413 92.3726 38.9638C90.6527 43.741 89.471 47.2336 88.8278 49.4417L86.2897 49.6917C86.2897 49.039 85.0382 45.4283 82.5351 38.8596C82.3813 41.3038 82.3044 43.3383 82.3044 44.9631C82.3044 46.574 82.3254 47.928 82.3673 49.0251V49.4834H79.4937V49.0251Z" fill="white"/>
<path d="M129.267 104.32C128.694 104.32 128.247 104.334 127.925 104.362C127.897 105.001 127.883 106.563 127.883 109.049L133.274 108.945L132.54 110.673H132.141C131.61 110.562 130.826 110.507 129.792 110.507C128.771 110.507 128.135 110.521 127.883 110.548V111.653C127.883 113.986 127.904 115.381 127.946 115.84C128.267 115.867 128.799 115.881 129.54 115.881C130.295 115.881 131.197 115.819 132.246 115.694C133.295 115.569 134.064 115.409 134.553 115.215H134.952L134.553 117.423H124.506V116.964C124.744 115.965 124.862 114.569 124.862 112.777V107.507C124.862 105.702 124.744 104.299 124.506 103.299V102.841L134.259 102.779L133.63 104.612H133.232C132.546 104.417 131.225 104.32 129.267 104.32Z" fill="white"/>
<circle cx="88.0747" cy="86.0412" r="22.5593" stroke="white" stroke-width="3"/>
<rect x="79.4937" y="85.9036" width="13.2946" height="2.34205" rx="1.17103" fill="white"/>
<rect x="93.4382" y="85.9036" width="2.27318" height="2.34205" rx="1.13659" fill="white"/>
<rect x="76.5015" y="97.2866" width="20.4241" height="2.34205" rx="1.17103" transform="rotate(-90 76.5015 97.2866)" fill="white"/>
<rect x="96.3616" y="97.2866" width="20.4241" height="2.34205" rx="1.17103" transform="rotate(-90 96.3616 97.2866)" fill="white"/>
<circle cx="87.5" cy="87.5" r="69" stroke="white" stroke-width="3"/>
</svg>
