{
  "asset": {
    "generator": "Khronos glTF Blender I/O v3.4.50",
    "version": "2.0"
  },
  "scene": 0,
  "scenes": [
    {
      "name": "Scene",
      "nodes": [0, 1, 2, 3, 4, 5, 6]
    }
  ],
  "nodes": [
    {
      "mesh": 0,
      "name": "Hoja2",
      "rotation": [0.14690837264060974, 0, 0, 0.9891501665115356],
      "scale": [1.2620311975479126, 1.2620311975479126, 1.2620311975479126],
      "translation": [0, -2.679004430770874, -1.6528232097625732]
    },
    {
      "mesh": 1,
      "name": "Ensaimada_low"
    },
    {
      "mesh": 2,
      "name": "Hoja1",
      "rotation": [
        0.9595716595649719, 0.1507008820772171, 0.03688212111592293,
        0.2348429262638092
      ],
      "scale": [1.4287043809890747, 1.4287043809890747, 1.4287043809890747],
      "translation": [
        0.8795593976974487, 2.945405960083008, -2.0235884189605713
      ]
    },
    {
      "mesh": 3,
      "name": "Hoja1.001",
      "rotation": [
        0.12649457156658173, -0.27106064558029175, -0.951463520526886,
        0.07240456342697144
      ],
      "scale": [0.9646866321563721, 0.9646864533424377, 0.9646865725517273],
      "translation": [1.803910732269287, 0.06054481863975525, 1.151755452156067]
    },
    {
      "mesh": 4,
      "name": "Hoja2.001",
      "scale": [0.7024741768836975, 0.7024741172790527, 0.7024741172790527],
      "translation": [
        -1.4786080121994019, 1.5740387439727783, 0.8708215355873108
      ]
    },
    {
      "mesh": 5,
      "name": "Hoja1.002",
      "rotation": [
        0.9917652606964111, 0.10367477685213089, 0.040272053331136703,
        0.0634939894080162
      ],
      "scale": [0.6501522660255432, 0.5533003211021423, 0.6532008051872253],
      "translation": [
        -2.2622532844543457, -1.7800657749176025, 1.0002081394195557
      ]
    },
    {
      "mesh": 6,
      "name": "Hoja2.002",
      "rotation": [
        -0.2940569221973419, -0.28362804651260376, -0.09184291958808899,
        0.9081026911735535
      ],
      "scale": [0.7024742364883423, 0.7024741172790527, 0.7024741172790527],
      "translation": [
        -1.4786080121994019, 0.9258862137794495, -1.2933484315872192
      ]
    }
  ],
  "animations": [
    {
      "channels": [
        {
          "sampler": 0,
          "target": {
            "node": 0,
            "path": "translation"
          }
        },
        {
          "sampler": 1,
          "target": {
            "node": 0,
            "path": "rotation"
          }
        },
        {
          "sampler": 2,
          "target": {
            "node": 0,
            "path": "scale"
          }
        },
        {
          "sampler": 3,
          "target": {
            "node": 1,
            "path": "translation"
          }
        },
        {
          "sampler": 4,
          "target": {
            "node": 1,
            "path": "rotation"
          }
        },
        {
          "sampler": 5,
          "target": {
            "node": 2,
            "path": "translation"
          }
        },
        {
          "sampler": 6,
          "target": {
            "node": 2,
            "path": "rotation"
          }
        },
        {
          "sampler": 7,
          "target": {
            "node": 2,
            "path": "scale"
          }
        },
        {
          "sampler": 8,
          "target": {
            "node": 3,
            "path": "translation"
          }
        },
        {
          "sampler": 9,
          "target": {
            "node": 3,
            "path": "rotation"
          }
        },
        {
          "sampler": 10,
          "target": {
            "node": 3,
            "path": "scale"
          }
        },
        {
          "sampler": 11,
          "target": {
            "node": 4,
            "path": "translation"
          }
        },
        {
          "sampler": 12,
          "target": {
            "node": 4,
            "path": "rotation"
          }
        },
        {
          "sampler": 13,
          "target": {
            "node": 4,
            "path": "scale"
          }
        },
        {
          "sampler": 14,
          "target": {
            "node": 5,
            "path": "translation"
          }
        },
        {
          "sampler": 15,
          "target": {
            "node": 5,
            "path": "rotation"
          }
        },
        {
          "sampler": 16,
          "target": {
            "node": 5,
            "path": "scale"
          }
        },
        {
          "sampler": 17,
          "target": {
            "node": 6,
            "path": "translation"
          }
        }
      ],
      "name": "Animation",
      "samplers": [
        {
          "input": 24,
          "interpolation": "LINEAR",
          "output": 25
        },
        {
          "input": 24,
          "interpolation": "LINEAR",
          "output": 26
        },
        {
          "input": 27,
          "interpolation": "STEP",
          "output": 28
        },
        {
          "input": 24,
          "interpolation": "LINEAR",
          "output": 29
        },
        {
          "input": 24,
          "interpolation": "LINEAR",
          "output": 30
        },
        {
          "input": 24,
          "interpolation": "LINEAR",
          "output": 31
        },
        {
          "input": 24,
          "interpolation": "LINEAR",
          "output": 32
        },
        {
          "input": 33,
          "interpolation": "STEP",
          "output": 34
        },
        {
          "input": 24,
          "interpolation": "LINEAR",
          "output": 35
        },
        {
          "input": 24,
          "interpolation": "LINEAR",
          "output": 36
        },
        {
          "input": 33,
          "interpolation": "STEP",
          "output": 37
        },
        {
          "input": 24,
          "interpolation": "LINEAR",
          "output": 38
        },
        {
          "input": 24,
          "interpolation": "LINEAR",
          "output": 39
        },
        {
          "input": 40,
          "interpolation": "STEP",
          "output": 41
        },
        {
          "input": 24,
          "interpolation": "LINEAR",
          "output": 42
        },
        {
          "input": 24,
          "interpolation": "LINEAR",
          "output": 43
        },
        {
          "input": 27,
          "interpolation": "STEP",
          "output": 44
        },
        {
          "input": 24,
          "interpolation": "LINEAR",
          "output": 45
        }
      ]
    }
  ],
  "materials": [
    {
      "alphaMode": "BLEND",
      "doubleSided": true,
      "name": "Material.001",
      "normalTexture": {
        "index": 0
      },
      "pbrMetallicRoughness": {
        "baseColorTexture": {
          "index": 1
        },
        "metallicFactor": 0,
        "metallicRoughnessTexture": {
          "index": 2
        }
      }
    }
  ],
  "meshes": [
    {
      "name": "Plane.001",
      "primitives": [
        {
          "attributes": {
            "POSITION": 0,
            "TEXCOORD_0": 1,
            "NORMAL": 2
          },
          "indices": 3,
          "material": 0
        }
      ]
    },
    {
      "name": "Plane.002",
      "primitives": [
        {
          "attributes": {
            "POSITION": 4,
            "TEXCOORD_0": 5,
            "NORMAL": 6
          },
          "indices": 7,
          "material": 0
        }
      ]
    },
    {
      "name": "Plane.003",
      "primitives": [
        {
          "attributes": {
            "POSITION": 8,
            "TEXCOORD_0": 9,
            "NORMAL": 10
          },
          "indices": 11,
          "material": 0
        }
      ]
    },
    {
      "name": "Plane.004",
      "primitives": [
        {
          "attributes": {
            "POSITION": 12,
            "TEXCOORD_0": 13,
            "NORMAL": 14
          },
          "indices": 11,
          "material": 0
        }
      ]
    },
    {
      "name": "Plane.005",
      "primitives": [
        {
          "attributes": {
            "POSITION": 15,
            "TEXCOORD_0": 16,
            "NORMAL": 17
          },
          "indices": 3,
          "material": 0
        }
      ]
    },
    {
      "name": "Plane.006",
      "primitives": [
        {
          "attributes": {
            "POSITION": 18,
            "TEXCOORD_0": 19,
            "NORMAL": 20
          },
          "indices": 11,
          "material": 0
        }
      ]
    },
    {
      "name": "Plane.007",
      "primitives": [
        {
          "attributes": {
            "POSITION": 21,
            "TEXCOORD_0": 22,
            "NORMAL": 23
          },
          "indices": 3,
          "material": 0
        }
      ]
    }
  ],
  "textures": [
    {
      "sampler": 0,
      "source": 0
    },
    {
      "sampler": 0,
      "source": 1
    },
    {
      "sampler": 0,
      "source": 2
    }
  ],
  "images": [
    {
      "bufferView": 4,
      "mimeType": "image/png",
      "name": "Ensaimada_Hojas_Normal"
    },
    {
      "bufferView": 5,
      "mimeType": "image/png",
      "name": "Ensaimada_Hojas_BaseColor-Ensaimada_Hojas_Opacity"
    },
    {
      "bufferView": 6,
      "mimeType": "image/png",
      "name": "Ensaimada_Hojas_Roughness"
    }
  ],
  "accessors": [
    {
      "bufferView": 0,
      "componentType": 5126,
      "count": 63,
      "max": [0, 0.9002608060836792, 0.7821599841117859],
      "min": [-0.23440074920654297, -0.37800630927085876, -0.7821599841117859],
      "type": "VEC3"
    },
    {
      "bufferView": 1,
      "componentType": 5126,
      "count": 63,
      "type": "VEC2"
    },
    {
      "bufferView": 2,
      "componentType": 5126,
      "count": 63,
      "type": "VEC3"
    },
    {
      "bufferView": 3,
      "componentType": 5123,
      "count": 168,
      "type": "SCALAR"
    },
    {
      "bufferView": 7,
      "componentType": 5126,
      "count": 239,
      "max": [1.1323132514953613, 0.9160523414611816, 1.0494277477264404],
      "min": [-0.9883777499198914, -1.1598756313323975, -0.9457162618637085],
      "type": "VEC3"
    },
    {
      "bufferView": 8,
      "componentType": 5126,
      "count": 239,
      "type": "VEC2"
    },
    {
      "bufferView": 9,
      "componentType": 5126,
      "count": 239,
      "type": "VEC3"
    },
    {
      "bufferView": 10,
      "componentType": 5123,
      "count": 1074,
      "type": "SCALAR"
    },
    {
      "bufferView": 11,
      "componentType": 5126,
      "count": 9,
      "max": [0.3890954256057739, 0.8777973651885986, 0.7821599841117859],
      "min": [0, -0.40046972036361694, -0.7821599841117859],
      "type": "VEC3"
    },
    {
      "bufferView": 12,
      "componentType": 5126,
      "count": 9,
      "type": "VEC2"
    },
    {
      "bufferView": 13,
      "componentType": 5126,
      "count": 9,
      "type": "VEC3"
    },
    {
      "bufferView": 14,
      "componentType": 5123,
      "count": 24,
      "type": "SCALAR"
    },
    {
      "bufferView": 15,
      "componentType": 5126,
      "count": 9,
      "max": [0.41583243012428284, 0.8777973651885986, 0.7821599841117859],
      "min": [0.07092336565256119, -0.40046972036361694, -0.7821599841117859],
      "type": "VEC3"
    },
    {
      "bufferView": 16,
      "componentType": 5126,
      "count": 9,
      "type": "VEC2"
    },
    {
      "bufferView": 17,
      "componentType": 5126,
      "count": 9,
      "type": "VEC3"
    },
    {
      "bufferView": 18,
      "componentType": 5126,
      "count": 63,
      "max": [0, 1.13450288772583, 1.072017788887024],
      "min": [-0.23440074920654297, -0.6538727283477783, -0.8677031397819519],
      "type": "VEC3"
    },
    {
      "bufferView": 19,
      "componentType": 5126,
      "count": 63,
      "type": "VEC2"
    },
    {
      "bufferView": 20,
      "componentType": 5126,
      "count": 63,
      "type": "VEC3"
    },
    {
      "bufferView": 21,
      "componentType": 5126,
      "count": 9,
      "max": [0.3890954256057739, 0.8777973651885986, 0.7821599841117859],
      "min": [0.07092336565256119, -0.40046972036361694, -0.7821599841117859],
      "type": "VEC3"
    },
    {
      "bufferView": 22,
      "componentType": 5126,
      "count": 9,
      "type": "VEC2"
    },
    {
      "bufferView": 23,
      "componentType": 5126,
      "count": 9,
      "type": "VEC3"
    },
    {
      "bufferView": 24,
      "componentType": 5126,
      "count": 63,
      "max": [-0.08828455209732056, 1.0119081735610962, 1.0032477378845215],
      "min": [-0.4429873526096344, -0.37800630927085876, -0.9208917617797852],
      "type": "VEC3"
    },
    {
      "bufferView": 25,
      "componentType": 5126,
      "count": 63,
      "type": "VEC2"
    },
    {
      "bufferView": 26,
      "componentType": 5126,
      "count": 63,
      "type": "VEC3"
    },
    {
      "bufferView": 27,
      "componentType": 5126,
      "count": 250,
      "max": [10.416666666666666],
      "min": [0.041666666666666664],
      "type": "SCALAR"
    },
    {
      "bufferView": 28,
      "componentType": 5126,
      "count": 250,
      "type": "VEC3"
    },
    {
      "bufferView": 29,
      "componentType": 5126,
      "count": 250,
      "type": "VEC4"
    },
    {
      "bufferView": 30,
      "componentType": 5126,
      "count": 1,
      "max": [5.208333333333333],
      "min": [5.208333333333333],
      "type": "SCALAR"
    },
    {
      "bufferView": 31,
      "componentType": 5126,
      "count": 1,
      "type": "VEC3"
    },
    {
      "bufferView": 32,
      "componentType": 5126,
      "count": 250,
      "type": "VEC3"
    },
    {
      "bufferView": 33,
      "componentType": 5126,
      "count": 250,
      "type": "VEC4"
    },
    {
      "bufferView": 34,
      "componentType": 5126,
      "count": 250,
      "type": "VEC3"
    },
    {
      "bufferView": 35,
      "componentType": 5126,
      "count": 250,
      "type": "VEC4"
    },
    {
      "bufferView": 36,
      "componentType": 5126,
      "count": 1,
      "max": [4.875],
      "min": [4.875],
      "type": "SCALAR"
    },
    {
      "bufferView": 37,
      "componentType": 5126,
      "count": 1,
      "type": "VEC3"
    },
    {
      "bufferView": 38,
      "componentType": 5126,
      "count": 250,
      "type": "VEC3"
    },
    {
      "bufferView": 39,
      "componentType": 5126,
      "count": 250,
      "type": "VEC4"
    },
    {
      "bufferView": 40,
      "componentType": 5126,
      "count": 1,
      "type": "VEC3"
    },
    {
      "bufferView": 41,
      "componentType": 5126,
      "count": 250,
      "type": "VEC3"
    },
    {
      "bufferView": 42,
      "componentType": 5126,
      "count": 250,
      "type": "VEC4"
    },
    {
      "bufferView": 43,
      "componentType": 5126,
      "count": 1,
      "max": [4.833333333333333],
      "min": [4.833333333333333],
      "type": "SCALAR"
    },
    {
      "bufferView": 44,
      "componentType": 5126,
      "count": 1,
      "type": "VEC3"
    },
    {
      "bufferView": 45,
      "componentType": 5126,
      "count": 250,
      "type": "VEC3"
    },
    {
      "bufferView": 46,
      "componentType": 5126,
      "count": 250,
      "type": "VEC4"
    },
    {
      "bufferView": 47,
      "componentType": 5126,
      "count": 1,
      "type": "VEC3"
    },
    {
      "bufferView": 48,
      "componentType": 5126,
      "count": 250,
      "type": "VEC3"
    }
  ],
  "bufferViews": [
    {
      "buffer": 0,
      "byteLength": 756,
      "byteOffset": 0,
      "target": 34962
    },
    {
      "buffer": 0,
      "byteLength": 504,
      "byteOffset": 756,
      "target": 34962
    },
    {
      "buffer": 0,
      "byteLength": 756,
      "byteOffset": 1260,
      "target": 34962
    },
    {
      "buffer": 0,
      "byteLength": 336,
      "byteOffset": 2016,
      "target": 34963
    },
    {
      "buffer": 0,
      "byteLength": 303302,
      "byteOffset": 2352
    },
    {
      "buffer": 0,
      "byteLength": 750456,
      "byteOffset": 305656
    },
    {
      "buffer": 0,
      "byteLength": 15799,
      "byteOffset": 1056112
    },
    {
      "buffer": 0,
      "byteLength": 2868,
      "byteOffset": 1071912,
      "target": 34962
    },
    {
      "buffer": 0,
      "byteLength": 1912,
      "byteOffset": 1074780,
      "target": 34962
    },
    {
      "buffer": 0,
      "byteLength": 2868,
      "byteOffset": 1076692,
      "target": 34962
    },
    {
      "buffer": 0,
      "byteLength": 2148,
      "byteOffset": 1079560,
      "target": 34963
    },
    {
      "buffer": 0,
      "byteLength": 108,
      "byteOffset": 1081708,
      "target": 34962
    },
    {
      "buffer": 0,
      "byteLength": 72,
      "byteOffset": 1081816,
      "target": 34962
    },
    {
      "buffer": 0,
      "byteLength": 108,
      "byteOffset": 1081888,
      "target": 34962
    },
    {
      "buffer": 0,
      "byteLength": 48,
      "byteOffset": 1081996,
      "target": 34963
    },
    {
      "buffer": 0,
      "byteLength": 108,
      "byteOffset": 1082044,
      "target": 34962
    },
    {
      "buffer": 0,
      "byteLength": 72,
      "byteOffset": 1082152,
      "target": 34962
    },
    {
      "buffer": 0,
      "byteLength": 108,
      "byteOffset": 1082224,
      "target": 34962
    },
    {
      "buffer": 0,
      "byteLength": 756,
      "byteOffset": 1082332,
      "target": 34962
    },
    {
      "buffer": 0,
      "byteLength": 504,
      "byteOffset": 1083088,
      "target": 34962
    },
    {
      "buffer": 0,
      "byteLength": 756,
      "byteOffset": 1083592,
      "target": 34962
    },
    {
      "buffer": 0,
      "byteLength": 108,
      "byteOffset": 1084348,
      "target": 34962
    },
    {
      "buffer": 0,
      "byteLength": 72,
      "byteOffset": 1084456,
      "target": 34962
    },
    {
      "buffer": 0,
      "byteLength": 108,
      "byteOffset": 1084528,
      "target": 34962
    },
    {
      "buffer": 0,
      "byteLength": 756,
      "byteOffset": 1084636,
      "target": 34962
    },
    {
      "buffer": 0,
      "byteLength": 504,
      "byteOffset": 1085392,
      "target": 34962
    },
    {
      "buffer": 0,
      "byteLength": 756,
      "byteOffset": 1085896,
      "target": 34962
    },
    {
      "buffer": 0,
      "byteLength": 1000,
      "byteOffset": 1086652
    },
    {
      "buffer": 0,
      "byteLength": 3000,
      "byteOffset": 1087652
    },
    {
      "buffer": 0,
      "byteLength": 4000,
      "byteOffset": 1090652
    },
    {
      "buffer": 0,
      "byteLength": 4,
      "byteOffset": 1094652
    },
    {
      "buffer": 0,
      "byteLength": 12,
      "byteOffset": 1094656
    },
    {
      "buffer": 0,
      "byteLength": 3000,
      "byteOffset": 1094668
    },
    {
      "buffer": 0,
      "byteLength": 4000,
      "byteOffset": 1097668
    },
    {
      "buffer": 0,
      "byteLength": 3000,
      "byteOffset": 1101668
    },
    {
      "buffer": 0,
      "byteLength": 4000,
      "byteOffset": 1104668
    },
    {
      "buffer": 0,
      "byteLength": 4,
      "byteOffset": 1108668
    },
    {
      "buffer": 0,
      "byteLength": 12,
      "byteOffset": 1108672
    },
    {
      "buffer": 0,
      "byteLength": 3000,
      "byteOffset": 1108684
    },
    {
      "buffer": 0,
      "byteLength": 4000,
      "byteOffset": 1111684
    },
    {
      "buffer": 0,
      "byteLength": 12,
      "byteOffset": 1115684
    },
    {
      "buffer": 0,
      "byteLength": 3000,
      "byteOffset": 1115696
    },
    {
      "buffer": 0,
      "byteLength": 4000,
      "byteOffset": 1118696
    },
    {
      "buffer": 0,
      "byteLength": 4,
      "byteOffset": 1122696
    },
    {
      "buffer": 0,
      "byteLength": 12,
      "byteOffset": 1122700
    },
    {
      "buffer": 0,
      "byteLength": 3000,
      "byteOffset": 1122712
    },
    {
      "buffer": 0,
      "byteLength": 4000,
      "byteOffset": 1125712
    },
    {
      "buffer": 0,
      "byteLength": 12,
      "byteOffset": 1129712
    },
    {
      "buffer": 0,
      "byteLength": 3000,
      "byteOffset": 1129724
    }
  ],
  "samplers": [
    {
      "magFilter": 9729,
      "minFilter": 9987
    }
  ],
  "buffers": [
    {
      "byteLength": 1132724,
      "uri": "data:application/octet-stream;base64,"
    }
  ]
}
